ply
format ascii 1.0
obj_info Generated by MDAL
comment comment1: test file for MDAL
comment crs: +proj=tmerc
comment comment2: test1
comment comment3: test2
element vertex 5
property double x
property double y
property double z
property double red
property double green
property double blue
property list uchar double vertex_vector
element face 2
property list uchar uint vertex_indices
property double m
property list uchar double face_vector
element edge 6
property uint vertex1
property uint vertex2
property double red_edge
property double green_edge
property double blue_edge
property list uchar double edge_vector
end_header
0 0 0 255 255 255 2 101 102 
0 10 0 255 255 0 2 103 104 
10 10 0 255 0 0 2 105 106 
10 0 0 0 0 0 2 107 108 
10 20 10 0 255 255 2 109 110 
4 0 1 2 3 1000 2 0 101 
3 2 4 3 2000 2 102 103 
0 1 0 0 0 2 101 102 
1 2 0 0 255 2 103 104 
2 3 0 255 255 2 105 0 
3 0 255 255 255 2 106 106 
2 4 255 255 0 2 0 108 
4 3 255 0 0 2 109 0 
