ply
format ascii 1.0
element vertex 369
property double X
property double Y
property double Z
element face 320
property list uchar uint vertex_indices
property list uchar double test
property list uchar double test__vols
end_header
0 100 -1.25625 
0 87.5 -2.50938 
25 100 -1.2625 
0 75 -4.3875 
25 87.5 -2.51875 
50 100 -1.275 
0 62.5 -5.0125 
25 75 -4.4 
50 87.5 -2.5375 
75 100 -1.2875 
0 50 -5.0125 
25 62.5 -5.025 
50 75 -4.425 
75 87.5 -2.55625 
100 100 -1.3 
0 37.5 -5.0125 
25 50 -5.025 
50 62.5 -5.05 
75 75 -4.45 
100 87.5 -2.575 
125 100 -1.3125 
0 25 -4.38437 
25 37.5 -5.025 
50 50 -5.05 
75 62.5 -5.075 
100 75 -4.475 
125 87.5 -2.59375 
150 100 -1.325 
0 12.5 -2.50312 
25 25 -4.39375 
50 37.5 -5.05 
75 50 -5.075 
100 62.5 -5.1 
125 75 -4.5 
150 87.5 -2.6125 
175 100 -1.3375 
0 0 -1.25 
25 12.5 -2.50625 
50 25 -4.4125 
75 37.5 -5.075 
100 50 -5.1 
125 62.5 -5.125 
150 75 -4.525 
175 87.5 -2.63125 
200 100 -1.35 
25 0 -1.25 
50 12.5 -2.5125 
75 25 -4.43125 
100 37.5 -5.1 
125 50 -5.125 
150 62.5 -5.15 
175 75 -4.55 
200 87.5 -2.65 
225 100 -1.3625 
50 0 -1.25 
75 12.5 -2.51875 
100 25 -4.45 
125 37.5 -5.125 
150 50 -5.15 
175 62.5 -5.175 
200 75 -4.575 
225 87.5 -2.66875 
250 100 -1.375 
75 0 -1.25 
100 12.5 -2.525 
125 25 -4.46875 
150 37.5 -5.15 
175 50 -5.175 
200 62.5 -5.2 
225 75 -4.6 
250 87.5 -2.6875 
275 100 -1.3875 
100 0 -1.25 
125 12.5 -2.53125 
150 25 -4.4875 
175 37.5 -5.175 
200 50 -5.2 
225 62.5 -5.225 
250 75 -4.625 
275 87.5 -2.70625 
300 100 -1.4 
125 0 -1.25 
150 12.5 -2.5375 
175 25 -4.50625 
200 37.5 -5.2 
225 50 -5.225 
250 62.5 -5.25 
275 75 -4.65 
300 87.5 -2.725 
325 100 -1.4125 
150 0 -1.25 
175 12.5 -2.54375 
200 25 -4.525 
225 37.5 -5.225 
250 50 -5.25 
275 62.5 -5.275 
300 75 -4.675 
325 87.5 -2.74375 
350 100 -1.425 
175 0 -1.25 
200 12.5 -2.55 
225 25 -4.54375 
250 37.5 -5.25 
275 50 -5.275 
300 62.5 -5.3 
325 75 -4.7 
350 87.5 -2.7625 
375 100 -1.4375 
200 0 -1.25 
225 12.5 -2.55625 
250 25 -4.5625 
275 37.5 -5.275 
300 50 -5.3 
325 62.5 -5.325 
350 75 -4.725 
375 87.5 -2.78125 
400 100 -1.45 
225 0 -1.25 
250 12.5 -2.5625 
275 25 -4.58125 
300 37.5 -5.3 
325 50 -5.325 
350 62.5 -5.35 
375 75 -4.75 
400 87.5 -2.8 
425 100 -1.4625 
250 0 -1.25 
275 12.5 -2.56875 
300 25 -4.6 
325 37.5 -5.325 
350 50 -5.35 
375 62.5 -5.375 
400 75 -4.775 
425 87.5 -2.81875 
450 100 -1.475 
275 0 -1.25 
300 12.5 -2.575 
325 25 -4.61875 
350 37.5 -5.35 
375 50 -5.375 
400 62.5 -5.4 
425 75 -4.8 
450 87.5 -2.8375 
475 100 -1.4875 
300 0 -1.25 
325 12.5 -2.58125 
350 25 -4.6375 
375 37.5 -5.375 
400 50 -5.4 
425 62.5 -5.425 
450 75 -4.825 
475 87.5 -2.85625 
500 100 -1.49688 
325 0 -1.25 
350 12.5 -2.5875 
375 25 -4.65625 
400 37.5 -5.4 
425 50 -5.425 
450 62.5 -5.45 
475 75 -4.85 
500 87.5 -2.87188 
525 100 -1.5 
350 0 -1.25 
375 12.5 -2.59375 
400 25 -4.675 
425 37.5 -5.425 
450 50 -5.45 
475 62.5 -5.475 
500 75 -4.87344 
525 87.5 -2.88125 
550 100 -1.5 
375 0 -1.25 
400 12.5 -2.6 
425 25 -4.69375 
450 37.5 -5.45 
475 50 -5.475 
500 62.5 -5.5 
525 75 -4.89375 
550 87.5 -2.8875 
575 100 -1.5 
400 0 -1.25 
425 12.5 -2.60625 
450 25 -4.7125 
475 37.5 -5.475 
500 50 -5.5 
525 62.5 -5.525 
550 75 -4.9125 
575 87.5 -2.89375 
600 100 -1.5 
425 0 -1.25 
450 12.5 -2.6125 
475 25 -4.73125 
500 37.5 -5.5 
525 50 -5.525 
550 62.5 -5.55 
575 75 -4.93125 
600 87.5 -2.9 
625 100 -1.5 
450 0 -1.25 
475 12.5 -2.61875 
500 25 -4.75156 
525 37.5 -5.525 
550 50 -5.55 
575 62.5 -5.575 
600 75 -4.95 
625 87.5 -2.90625 
650 100 -1.5 
475 0 -1.25 
500 12.5 -2.62813 
525 25 -4.775 
550 37.5 -5.55 
575 50 -5.575 
600 62.5 -5.6 
625 75 -4.96875 
650 87.5 -2.9125 
675 100 -1.5 
500 0 -1.25312 
525 12.5 -2.64375 
550 25 -4.8 
575 37.5 -5.575 
600 50 -5.6 
625 62.5 -5.625 
650 75 -4.9875 
675 87.5 -2.91875 
700 100 -1.5 
525 0 -1.2625 
550 12.5 -2.6625 
575 25 -4.825 
600 37.5 -5.6 
625 50 -5.625 
650 62.5 -5.65 
675 75 -5.00625 
700 87.5 -2.925 
725 100 -1.5 
550 0 -1.275 
575 12.5 -2.68125 
600 25 -4.85 
625 37.5 -5.625 
650 50 -5.65 
675 62.5 -5.675 
700 75 -5.025 
725 87.5 -2.93125 
750 100 -1.5 
575 0 -1.2875 
600 12.5 -2.7 
625 25 -4.875 
650 37.5 -5.65 
675 50 -5.675 
700 62.5 -5.7 
725 75 -5.04375 
750 87.5 -2.9375 
775 100 -1.5 
600 0 -1.3 
625 12.5 -2.71875 
650 25 -4.9 
675 37.5 -5.675 
700 50 -5.7 
725 62.5 -5.725 
750 75 -5.0625 
775 87.5 -2.94375 
800 100 -1.5 
625 0 -1.3125 
650 12.5 -2.7375 
675 25 -4.925 
700 37.5 -5.7 
725 50 -5.725 
750 62.5 -5.75 
775 75 -5.08125 
800 87.5 -2.95 
825 100 -1.5 
650 0 -1.325 
675 12.5 -2.75625 
700 25 -4.95 
725 37.5 -5.725 
750 50 -5.75 
775 62.5 -5.775 
800 75 -5.1 
825 87.5 -2.95625 
850 100 -1.5 
675 0 -1.3375 
700 12.5 -2.775 
725 25 -4.975 
750 37.5 -5.75 
775 50 -5.775 
800 62.5 -5.8 
825 75 -5.11875 
850 87.5 -2.9625 
875 100 -1.5 
700 0 -1.35 
725 12.5 -2.79375 
750 25 -5 
775 37.5 -5.775 
800 50 -5.8 
825 62.5 -5.825 
850 75 -5.1375 
875 87.5 -2.96875 
900 100 -1.5 
725 0 -1.3625 
750 12.5 -2.8125 
775 25 -5.025 
800 37.5 -5.8 
825 50 -5.825 
850 62.5 -5.85 
875 75 -5.15625 
900 87.5 -2.975 
925 100 -1.5 
750 0 -1.375 
775 12.5 -2.83125 
800 25 -5.05 
825 37.5 -5.825 
850 50 -5.85 
875 62.5 -5.875 
900 75 -5.175 
925 87.5 -2.98125 
950 100 -1.5 
775 0 -1.3875 
800 12.5 -2.85 
825 25 -5.075 
850 37.5 -5.85 
875 50 -5.875 
900 62.5 -5.9 
925 75 -5.19375 
950 87.5 -2.9875 
975 100 -1.5 
800 0 -1.4 
825 12.5 -2.86875 
850 25 -5.1 
875 37.5 -5.875 
900 50 -5.9 
925 62.5 -5.925 
950 75 -5.2125 
975 87.5 -2.99375 
1000 100 -1.5 
825 0 -1.4125 
850 12.5 -2.8875 
875 25 -5.125 
900 37.5 -5.9 
925 50 -5.925 
950 62.5 -5.95 
975 75 -5.23125 
1000 87.5 -2.99688 
850 0 -1.425 
875 12.5 -2.90625 
900 25 -5.15 
925 37.5 -5.925 
950 50 -5.95 
975 62.5 -5.975 
1000 75 -5.24063 
875 0 -1.4375 
900 12.5 -2.925 
925 25 -5.175 
950 37.5 -5.95 
975 50 -5.975 
1000 62.5 -5.9875 
900 0 -1.45 
925 12.5 -2.94375 
950 25 -5.2 
975 37.5 -5.975 
1000 50 -5.9875 
925 0 -1.4625 
950 12.5 -2.9625 
975 25 -5.225 
1000 37.5 -5.9875 
950 0 -1.475 
975 12.5 -2.98125 
1000 25 -5.2375 
975 0 -1.4875 
1000 12.5 -2.99063 
1000 0 -1.49375 
4 2 0 1 4 10 0 0 0 0 0 0 0 0 0 0 11 -1.25625 -1.25625 -1.25625 -1.25625 -1.25625 -1.25625 -1.25625 -1.25625 -1.25625 -1.25625 -1.25625 
4 4 1 3 7 10 5 5 5 5 5 5 5 5 5 5 11 -3.5 -3.52625 -3.5525 -3.57875 -3.605 -3.63125 -3.6575 -3.68375 -3.71 -3.73625 -3.7625 
4 5 2 4 8 10 0 0 0 0 0 0 0 0 0 0 11 -1.26875 -1.26875 -1.26875 -1.26875 -1.26875 -1.26875 -1.26875 -1.26875 -1.26875 -1.26875 -1.26875 
4 6 11 7 3 10 5 5 5 5 5 5 5 5 5 5 11 -3.5 -3.65125 -3.8025 -3.95375 -4.105 -4.25625 -4.4075 -4.55875 -4.71 -4.86125 -5.0125 
4 8 4 7 12 10 5 5 5 5 5 5 5 5 5 5 11 -3.5 -3.52875 -3.5575 -3.58625 -3.615 -3.64375 -3.6725 -3.70125 -3.73 -3.75875 -3.7875 
4 9 5 8 13 10 0 0 0 0 0 0 0 0 0 0 11 -1.28125 -1.28125 -1.28125 -1.28125 -1.28125 -1.28125 -1.28125 -1.28125 -1.28125 -1.28125 -1.28125 
4 10 16 11 6 10 5 5 5 5 5 5 5 5 5 5 11 -3.5 -3.65125 -3.8025 -3.95375 -4.105 -4.25625 -4.4075 -4.55875 -4.71 -4.86125 -5.0125 
4 11 17 12 7 10 5 5 5 5 5 5 5 5 5 5 11 -3.5 -3.65375 -3.8075 -3.96125 -4.115 -4.26875 -4.4225 -4.57625 -4.73 -4.88375 -5.0375 
4 13 8 12 18 10 5 5 5 5 5 5 5 5 5 5 11 -3.5 -3.53125 -3.5625 -3.59375 -3.625 -3.65625 -3.6875 -3.71875 -3.75 -3.78125 -3.8125 
4 14 9 13 19 10 0 0 0 0 0 0 0 0 0 0 11 -1.29375 -1.29375 -1.29375 -1.29375 -1.29375 -1.29375 -1.29375 -1.29375 -1.29375 -1.29375 -1.29375 
4 15 22 16 10 10 5 5 5 5 5 5 5 5 5 5 11 -3.5 -3.65125 -3.8025 -3.95375 -4.105 -4.25625 -4.4075 -4.55875 -4.71 -4.86125 -5.0125 
4 16 23 17 11 10 5 5 5 5 5 5 5 5 5 5 11 -3.5 -3.65375 -3.8075 -3.96125 -4.115 -4.26875 -4.4225 -4.57625 -4.73 -4.88375 -5.0375 
4 17 24 18 12 10 5 5 5 5 5 5 5 5 5 5 11 -3.5 -3.65625 -3.8125 -3.96875 -4.125 -4.28125 -4.4375 -4.59375 -4.75 -4.90625 -5.0625 
4 19 13 18 25 10 5 5 5 5 5 5 5 5 5 5 11 -3.5 -3.53375 -3.5675 -3.60125 -3.635 -3.66875 -3.7025 -3.73625 -3.77 -3.80375 -3.8375 
4 20 14 19 26 10 0 0 0 0 0 0 0 0 0 0 11 -1.30625 -1.30625 -1.30625 -1.30625 -1.30625 -1.30625 -1.30625 -1.30625 -1.30625 -1.30625 -1.30625 
4 21 29 22 15 10 5 5 5 5 5 5 5 5 5 5 11 -3.5 -3.65125 -3.8025 -3.95375 -4.105 -4.25625 -4.4075 -4.55875 -4.71 -4.86125 -5.0125 
4 22 30 23 16 10 5 5 5 5 5 5 5 5 5 5 11 -3.5 -3.65375 -3.8075 -3.96125 -4.115 -4.26875 -4.4225 -4.57625 -4.73 -4.88375 -5.0375 
4 23 31 24 17 10 5 5 5 5 5 5 5 5 5 5 11 -3.5 -3.65625 -3.8125 -3.96875 -4.125 -4.28125 -4.4375 -4.59375 -4.75 -4.90625 -5.0625 
4 24 32 25 18 10 5 5 5 5 5 5 5 5 5 5 11 -3.5 -3.65875 -3.8175 -3.97625 -4.135 -4.29375 -4.4525 -4.61125 -4.77 -4.92875 -5.0875 
4 26 19 25 33 10 5 5 5 5 5 5 5 5 5 5 11 -3.5 -3.53625 -3.5725 -3.60875 -3.645 -3.68125 -3.7175 -3.75375 -3.79 -3.82625 -3.8625 
4 27 20 26 34 10 0 0 0 0 0 0 0 0 0 0 11 -1.31875 -1.31875 -1.31875 -1.31875 -1.31875 -1.31875 -1.31875 -1.31875 -1.31875 -1.31875 -1.31875 
4 28 37 29 21 10 5 5 5 5 5 5 5 5 5 5 11 -3.5 -3.52562 -3.55125 -3.57687 -3.6025 -3.62812 -3.65375 -3.67937 -3.705 -3.73062 -3.75625 
4 29 38 30 22 10 5 5 5 5 5 5 5 5 5 5 11 -3.5 -3.65375 -3.8075 -3.96125 -4.115 -4.26875 -4.4225 -4.57625 -4.73 -4.88375 -5.0375 
4 30 39 31 23 10 5 5 5 5 5 5 5 5 5 5 11 -3.5 -3.65625 -3.8125 -3.96875 -4.125 -4.28125 -4.4375 -4.59375 -4.75 -4.90625 -5.0625 
4 31 40 32 24 10 5 5 5 5 5 5 5 5 5 5 11 -3.5 -3.65875 -3.8175 -3.97625 -4.135 -4.29375 -4.4525 -4.61125 -4.77 -4.92875 -5.0875 
4 32 41 33 25 10 5 5 5 5 5 5 5 5 5 5 11 -3.5 -3.66125 -3.8225 -3.98375 -4.145 -4.30625 -4.4675 -4.62875 -4.79 -4.95125 -5.1125 
4 34 26 33 42 10 5 5 5 5 5 5 5 5 5 5 11 -3.5 -3.53875 -3.5775 -3.61625 -3.655 -3.69375 -3.7325 -3.77125 -3.81 -3.84875 -3.8875 
4 35 27 34 43 10 0 0 0 0 0 0 0 0 0 0 11 -1.33125 -1.33125 -1.33125 -1.33125 -1.33125 -1.33125 -1.33125 -1.33125 -1.33125 -1.33125 -1.33125 
4 36 45 37 28 10 0 0 0 0 0 0 0 0 0 0 11 -1.25 -1.25 -1.25 -1.25 -1.25 -1.25 -1.25 -1.25 -1.25 -1.25 -1.25 
4 37 46 38 29 10 5 5 5 5 5 5 5 5 5 5 11 -3.5 -3.52688 -3.55375 -3.58063 -3.6075 -3.63438 -3.66125 -3.68813 -3.715 -3.74188 -3.76875 
4 38 47 39 30 10 5 5 5 5 5 5 5 5 5 5 11 -3.5 -3.65625 -3.8125 -3.96875 -4.125 -4.28125 -4.4375 -4.59375 -4.75 -4.90625 -5.0625 
4 39 48 40 31 10 5 5 5 5 5 5 5 5 5 5 11 -3.5 -3.65875 -3.8175 -3.97625 -4.135 -4.29375 -4.4525 -4.61125 -4.77 -4.92875 -5.0875 
4 40 49 41 32 10 5 5 5 5 5 5 5 5 5 5 11 -3.5 -3.66125 -3.8225 -3.98375 -4.145 -4.30625 -4.4675 -4.62875 -4.79 -4.95125 -5.1125 
4 41 50 42 33 10 5 5 5 5 5 5 5 5 5 5 11 -3.5 -3.66375 -3.8275 -3.99125 -4.155 -4.31875 -4.4825 -4.64625 -4.81 -4.97375 -5.1375 
4 43 34 42 51 10 5 5 5 5 5 5 5 5 5 5 11 -3.5 -3.54125 -3.5825 -3.62375 -3.665 -3.70625 -3.7475 -3.78875 -3.83 -3.87125 -3.9125 
4 44 35 43 52 10 0 0 0 0 0 0 0 0 0 0 11 -1.34375 -1.34375 -1.34375 -1.34375 -1.34375 -1.34375 -1.34375 -1.34375 -1.34375 -1.34375 -1.34375 
4 45 54 46 37 10 0 0 0 0 0 0 0 0 0 0 11 -1.25 -1.25 -1.25 -1.25 -1.25 -1.25 -1.25 -1.25 -1.25 -1.25 -1.25 
4 46 55 47 38 10 5 5 5 5 5 5 5 5 5 5 11 -3.5 -3.52813 -3.55625 -3.58438 -3.6125 -3.64063 -3.66875 -3.69688 -3.725 -3.75313 -3.78125 
4 47 56 48 39 10 5 5 5 5 5 5 5 5 5 5 11 -3.5 -3.65875 -3.8175 -3.97625 -4.135 -4.29375 -4.4525 -4.61125 -4.77 -4.92875 -5.0875 
4 48 57 49 40 10 5 5 5 5 5 5 5 5 5 5 11 -3.5 -3.66125 -3.8225 -3.98375 -4.145 -4.30625 -4.4675 -4.62875 -4.79 -4.95125 -5.1125 
4 49 58 50 41 10 5 5 5 5 5 5 5 5 5 5 11 -3.5 -3.66375 -3.8275 -3.99125 -4.155 -4.31875 -4.4825 -4.64625 -4.81 -4.97375 -5.1375 
4 50 59 51 42 10 5 5 5 5 5 5 5 5 5 5 11 -3.5 -3.66625 -3.8325 -3.99875 -4.165 -4.33125 -4.4975 -4.66375 -4.83 -4.99625 -5.1625 
4 52 43 51 60 10 5 5 5 5 5 5 5 5 5 5 11 -3.5 -3.54375 -3.5875 -3.63125 -3.675 -3.71875 -3.7625 -3.80625 -3.85 -3.89375 -3.9375 
4 53 44 52 61 10 0 0 0 0 0 0 0 0 0 0 11 -1.35625 -1.35625 -1.35625 -1.35625 -1.35625 -1.35625 -1.35625 -1.35625 -1.35625 -1.35625 -1.35625 
4 54 63 55 46 10 0 0 0 0 0 0 0 0 0 0 11 -1.25 -1.25 -1.25 -1.25 -1.25 -1.25 -1.25 -1.25 -1.25 -1.25 -1.25 
4 55 64 56 47 10 5 5 5 5 5 5 5 5 5 5 11 -3.5 -3.52938 -3.55875 -3.58813 -3.6175 -3.64688 -3.67625 -3.70563 -3.735 -3.76438 -3.79375 
4 56 65 57 48 10 5 5 5 5 5 5 5 5 5 5 11 -3.5 -3.66125 -3.8225 -3.98375 -4.145 -4.30625 -4.4675 -4.62875 -4.79 -4.95125 -5.1125 
4 57 66 58 49 10 5 5 5 5 5 5 5 5 5 5 11 -3.5 -3.66375 -3.8275 -3.99125 -4.155 -4.31875 -4.4825 -4.64625 -4.81 -4.97375 -5.1375 
4 58 67 59 50 10 5 5 5 5 5 5 5 5 5 5 11 -3.5 -3.66625 -3.8325 -3.99875 -4.165 -4.33125 -4.4975 -4.66375 -4.83 -4.99625 -5.1625 
4 59 68 60 51 10 5 5 5 5 5 5 5 5 5 5 11 -3.5 -3.66875 -3.8375 -4.00625 -4.175 -4.34375 -4.5125 -4.68125 -4.85 -5.01875 -5.1875 
4 61 52 60 69 10 5 5 5 5 5 5 5 5 5 5 11 -3.5 -3.54625 -3.5925 -3.63875 -3.685 -3.73125 -3.7775 -3.82375 -3.87 -3.91625 -3.9625 
4 62 53 61 70 10 0 0 0 0 0 0 0 0 0 0 11 -1.36875 -1.36875 -1.36875 -1.36875 -1.36875 -1.36875 -1.36875 -1.36875 -1.36875 -1.36875 -1.36875 
4 63 72 64 55 10 0 0 0 0 0 0 0 0 0 0 11 -1.25 -1.25 -1.25 -1.25 -1.25 -1.25 -1.25 -1.25 -1.25 -1.25 -1.25 
4 64 73 65 56 10 5 5 5 5 5 5 5 5 5 5 11 -3.5 -3.53063 -3.56125 -3.59188 -3.6225 -3.65313 -3.68375 -3.71438 -3.745 -3.77563 -3.80625 
4 65 74 66 57 10 5 5 5 5 5 5 5 5 5 5 11 -3.5 -3.66375 -3.8275 -3.99125 -4.155 -4.31875 -4.4825 -4.64625 -4.81 -4.97375 -5.1375 
4 66 75 67 58 10 5 5 5 5 5 5 5 5 5 5 11 -3.5 -3.66625 -3.8325 -3.99875 -4.165 -4.33125 -4.4975 -4.66375 -4.83 -4.99625 -5.1625 
4 67 76 68 59 10 5 5 5 5 5 5 5 5 5 5 11 -3.5 -3.66875 -3.8375 -4.00625 -4.175 -4.34375 -4.5125 -4.68125 -4.85 -5.01875 -5.1875 
4 68 77 69 60 10 5 5 5 5 5 5 5 5 5 5 11 -3.5 -3.67125 -3.8425 -4.01375 -4.185 -4.35625 -4.5275 -4.69875 -4.87 -5.04125 -5.2125 
4 70 61 69 78 10 5 5 5 5 5 5 5 5 5 5 11 -3.5 -3.54875 -3.5975 -3.64625 -3.695 -3.74375 -3.7925 -3.84125 -3.89 -3.93875 -3.9875 
4 71 62 70 79 10 0 0 0 0 0 0 0 0 0 0 11 -1.38125 -1.38125 -1.38125 -1.38125 -1.38125 -1.38125 -1.38125 -1.38125 -1.38125 -1.38125 -1.38125 
4 72 81 73 64 10 0 0 0 0 0 0 0 0 0 0 11 -1.25 -1.25 -1.25 -1.25 -1.25 -1.25 -1.25 -1.25 -1.25 -1.25 -1.25 
4 73 82 74 65 10 5 5 5 5 5 5 5 5 5 5 11 -3.5 -3.53187 -3.56375 -3.59562 -3.6275 -3.65937 -3.69125 -3.72312 -3.755 -3.78687 -3.81875 
4 74 83 75 66 10 5 5 5 5 5 5 5 5 5 5 11 -3.5 -3.66625 -3.8325 -3.99875 -4.165 -4.33125 -4.4975 -4.66375 -4.83 -4.99625 -5.1625 
4 75 84 76 67 10 5 5 5 5 5 5 5 5 5 5 11 -3.5 -3.66875 -3.8375 -4.00625 -4.175 -4.34375 -4.5125 -4.68125 -4.85 -5.01875 -5.1875 
4 76 85 77 68 10 5 5 5 5 5 5 5 5 5 5 11 -3.5 -3.67125 -3.8425 -4.01375 -4.185 -4.35625 -4.5275 -4.69875 -4.87 -5.04125 -5.2125 
4 77 86 78 69 10 5 5 5 5 5 5 5 5 5 5 11 -3.5 -3.67375 -3.8475 -4.02125 -4.195 -4.36875 -4.5425 -4.71625 -4.89 -5.06375 -5.2375 
4 79 70 78 87 10 5 5 5 5 5 5 5 5 5 5 11 -3.5 -3.55125 -3.6025 -3.65375 -3.705 -3.75625 -3.8075 -3.85875 -3.91 -3.96125 -4.0125 
4 80 71 79 88 10 0 0 0 0 0 0 0 0 0 0 11 -1.39375 -1.39375 -1.39375 -1.39375 -1.39375 -1.39375 -1.39375 -1.39375 -1.39375 -1.39375 -1.39375 
4 81 90 82 73 10 0 0 0 0 0 0 0 0 0 0 11 -1.25 -1.25 -1.25 -1.25 -1.25 -1.25 -1.25 -1.25 -1.25 -1.25 -1.25 
4 82 91 83 74 10 5 5 5 5 5 5 5 5 5 5 11 -3.5 -3.53312 -3.56625 -3.59937 -3.6325 -3.66562 -3.69875 -3.73187 -3.765 -3.79812 -3.83125 
4 83 92 84 75 10 5 5 5 5 5 5 5 5 5 5 11 -3.5 -3.66875 -3.8375 -4.00625 -4.175 -4.34375 -4.5125 -4.68125 -4.85 -5.01875 -5.1875 
4 84 93 85 76 10 5 5 5 5 5 5 5 5 5 5 11 -3.5 -3.67125 -3.8425 -4.01375 -4.185 -4.35625 -4.5275 -4.69875 -4.87 -5.04125 -5.2125 
4 85 94 86 77 10 5 5 5 5 5 5 5 5 5 5 11 -3.5 -3.67375 -3.8475 -4.02125 -4.195 -4.36875 -4.5425 -4.71625 -4.89 -5.06375 -5.2375 
4 86 95 87 78 10 5 5 5 5 5 5 5 5 5 5 11 -3.5 -3.67625 -3.8525 -4.02875 -4.205 -4.38125 -4.5575 -4.73375 -4.91 -5.08625 -5.2625 
4 88 79 87 96 10 5 5 5 5 5 5 5 5 5 5 11 -3.5 -3.55375 -3.6075 -3.66125 -3.715 -3.76875 -3.8225 -3.87625 -3.93 -3.98375 -4.0375 
4 89 80 88 97 10 0 0 0 0 0 0 0 0 0 0 11 -1.40625 -1.40625 -1.40625 -1.40625 -1.40625 -1.40625 -1.40625 -1.40625 -1.40625 -1.40625 -1.40625 
4 90 99 91 82 10 0 0 0 0 0 0 0 0 0 0 11 -1.25 -1.25 -1.25 -1.25 -1.25 -1.25 -1.25 -1.25 -1.25 -1.25 -1.25 
4 91 100 92 83 10 5 5 5 5 5 5 5 5 5 5 11 -3.5 -3.53437 -3.56875 -3.60312 -3.6375 -3.67187 -3.70625 -3.74062 -3.775 -3.80937 -3.84375 
4 92 101 93 84 10 5 5 5 5 5 5 5 5 5 5 11 -3.5 -3.67125 -3.8425 -4.01375 -4.185 -4.35625 -4.5275 -4.69875 -4.87 -5.04125 -5.2125 
4 93 102 94 85 10 5 5 5 5 5 5 5 5 5 5 11 -3.5 -3.67375 -3.8475 -4.02125 -4.195 -4.36875 -4.5425 -4.71625 -4.89 -5.06375 -5.2375 
4 94 103 95 86 10 5 5 5 5 5 5 5 5 5 5 11 -3.5 -3.67625 -3.8525 -4.02875 -4.205 -4.38125 -4.5575 -4.73375 -4.91 -5.08625 -5.2625 
4 95 104 96 87 10 5 5 5 5 5 5 5 5 5 5 11 -3.5 -3.67875 -3.8575 -4.03625 -4.215 -4.39375 -4.5725 -4.75125 -4.93 -5.10875 -5.2875 
4 97 88 96 105 10 5 5 5 5 5 5 5 5 5 5 11 -3.5 -3.55625 -3.6125 -3.66875 -3.725 -3.78125 -3.8375 -3.89375 -3.95 -4.00625 -4.0625 
4 98 89 97 106 10 0 0 0 0 0 0 0 0 0 0 11 -1.41875 -1.41875 -1.41875 -1.41875 -1.41875 -1.41875 -1.41875 -1.41875 -1.41875 -1.41875 -1.41875 
4 99 108 100 91 10 0 0 0 0 0 0 0 0 0 0 11 -1.25 -1.25 -1.25 -1.25 -1.25 -1.25 -1.25 -1.25 -1.25 -1.25 -1.25 
4 100 109 101 92 10 5 5 5 5 5 5 5 5 5 5 11 -3.5 -3.53562 -3.57125 -3.60687 -3.6425 -3.67812 -3.71375 -3.74937 -3.785 -3.82062 -3.85625 
4 101 110 102 93 10 5 5 5 5 5 5 5 5 5 5 11 -3.5 -3.67375 -3.8475 -4.02125 -4.195 -4.36875 -4.5425 -4.71625 -4.89 -5.06375 -5.2375 
4 102 111 103 94 10 5 5 5 5 5 5 5 5 5 5 11 -3.5 -3.67625 -3.8525 -4.02875 -4.205 -4.38125 -4.5575 -4.73375 -4.91 -5.08625 -5.2625 
4 103 112 104 95 10 5 5 5 5 5 5 5 5 5 5 11 -3.5 -3.67875 -3.8575 -4.03625 -4.215 -4.39375 -4.5725 -4.75125 -4.93 -5.10875 -5.2875 
4 104 113 105 96 10 5 5 5 5 5 5 5 5 5 5 11 -3.5 -3.68125 -3.8625 -4.04375 -4.225 -4.40625 -4.5875 -4.76875 -4.95 -5.13125 -5.3125 
4 106 97 105 114 10 5 5 5 5 5 5 5 5 5 5 11 -3.5 -3.55875 -3.6175 -3.67625 -3.735 -3.79375 -3.8525 -3.91125 -3.97 -4.02875 -4.0875 
4 107 98 106 115 10 0 0 0 0 0 0 0 0 0 0 11 -1.43125 -1.43125 -1.43125 -1.43125 -1.43125 -1.43125 -1.43125 -1.43125 -1.43125 -1.43125 -1.43125 
4 108 117 109 100 10 0 0 0 0 0 0 0 0 0 0 11 -1.25 -1.25 -1.25 -1.25 -1.25 -1.25 -1.25 -1.25 -1.25 -1.25 -1.25 
4 109 118 110 101 10 5 5 5 5 5 5 5 5 5 5 11 -3.5 -3.53688 -3.57375 -3.61063 -3.6475 -3.68438 -3.72125 -3.75813 -3.795 -3.83188 -3.86875 
4 110 119 111 102 10 5 5 5 5 5 5 5 5 5 5 11 -3.5 -3.67625 -3.8525 -4.02875 -4.205 -4.38125 -4.5575 -4.73375 -4.91 -5.08625 -5.2625 
4 111 120 112 103 10 5 5 5 5 5 5 5 5 5 5 11 -3.5 -3.67875 -3.8575 -4.03625 -4.215 -4.39375 -4.5725 -4.75125 -4.93 -5.10875 -5.2875 
4 112 121 113 104 10 5 5 5 5 5 5 5 5 5 5 11 -3.5 -3.68125 -3.8625 -4.04375 -4.225 -4.40625 -4.5875 -4.76875 -4.95 -5.13125 -5.3125 
4 113 122 114 105 10 5 5 5 5 5 5 5 5 5 5 11 -3.5 -3.68375 -3.8675 -4.05125 -4.235 -4.41875 -4.6025 -4.78625 -4.97 -5.15375 -5.3375 
4 115 106 114 123 10 5 5 5 5 5 5 5 5 5 5 11 -3.5 -3.56125 -3.6225 -3.68375 -3.745 -3.80625 -3.8675 -3.92875 -3.99 -4.05125 -4.1125 
4 116 107 115 124 10 0 0 0 0 0 0 0 0 0 0 11 -1.44375 -1.44375 -1.44375 -1.44375 -1.44375 -1.44375 -1.44375 -1.44375 -1.44375 -1.44375 -1.44375 
4 117 126 118 109 10 0 0 0 0 0 0 0 0 0 0 11 -1.25 -1.25 -1.25 -1.25 -1.25 -1.25 -1.25 -1.25 -1.25 -1.25 -1.25 
4 118 127 119 110 10 5 5 5 5 5 5 5 5 5 5 11 -3.5 -3.53813 -3.57625 -3.61438 -3.6525 -3.69063 -3.72875 -3.76688 -3.805 -3.84313 -3.88125 
4 119 128 120 111 10 5 5 5 5 5 5 5 5 5 5 11 -3.5 -3.67875 -3.8575 -4.03625 -4.215 -4.39375 -4.5725 -4.75125 -4.93 -5.10875 -5.2875 
4 120 129 121 112 10 5 5 5 5 5 5 5 5 5 5 11 -3.5 -3.68125 -3.8625 -4.04375 -4.225 -4.40625 -4.5875 -4.76875 -4.95 -5.13125 -5.3125 
4 121 130 122 113 10 5 5 5 5 5 5 5 5 5 5 11 -3.5 -3.68375 -3.8675 -4.05125 -4.235 -4.41875 -4.6025 -4.78625 -4.97 -5.15375 -5.3375 
4 122 131 123 114 10 5 5 5 5 5 5 5 5 5 5 11 -3.5 -3.68625 -3.8725 -4.05875 -4.245 -4.43125 -4.6175 -4.80375 -4.99 -5.17625 -5.3625 
4 124 115 123 132 10 5 5 5 5 5 5 5 5 5 5 11 -3.5 -3.56375 -3.6275 -3.69125 -3.755 -3.81875 -3.8825 -3.94625 -4.01 -4.07375 -4.1375 
4 125 116 124 133 10 0 0 0 0 0 0 0 0 0 0 11 -1.45625 -1.45625 -1.45625 -1.45625 -1.45625 -1.45625 -1.45625 -1.45625 -1.45625 -1.45625 -1.45625 
4 126 135 127 118 10 0 0 0 0 0 0 0 0 0 0 11 -1.25 -1.25 -1.25 -1.25 -1.25 -1.25 -1.25 -1.25 -1.25 -1.25 -1.25 
4 127 136 128 119 10 5 5 5 5 5 5 5 5 5 5 11 -3.5 -3.53938 -3.57875 -3.61813 -3.6575 -3.69688 -3.73625 -3.77563 -3.815 -3.85438 -3.89375 
4 128 137 129 120 10 5 5 5 5 5 5 5 5 5 5 11 -3.5 -3.68125 -3.8625 -4.04375 -4.225 -4.40625 -4.5875 -4.76875 -4.95 -5.13125 -5.3125 
4 129 138 130 121 10 5 5 5 5 5 5 5 5 5 5 11 -3.5 -3.68375 -3.8675 -4.05125 -4.235 -4.41875 -4.6025 -4.78625 -4.97 -5.15375 -5.3375 
4 130 139 131 122 10 5 5 5 5 5 5 5 5 5 5 11 -3.5 -3.68625 -3.8725 -4.05875 -4.245 -4.43125 -4.6175 -4.80375 -4.99 -5.17625 -5.3625 
4 131 140 132 123 10 5 5 5 5 5 5 5 5 5 5 11 -3.5 -3.68875 -3.8775 -4.06625 -4.255 -4.44375 -4.6325 -4.82125 -5.01 -5.19875 -5.3875 
4 133 124 132 141 10 5 5 5 5 5 5 5 5 5 5 11 -3.5 -3.56625 -3.6325 -3.69875 -3.765 -3.83125 -3.8975 -3.96375 -4.03 -4.09625 -4.1625 
4 134 125 133 142 10 0 0 0 0 0 0 0 0 0 0 11 -1.46875 -1.46875 -1.46875 -1.46875 -1.46875 -1.46875 -1.46875 -1.46875 -1.46875 -1.46875 -1.46875 
4 135 144 136 127 10 0 0 0 0 0 0 0 0 0 0 11 -1.25 -1.25 -1.25 -1.25 -1.25 -1.25 -1.25 -1.25 -1.25 -1.25 -1.25 
4 136 145 137 128 10 5 5 5 5 5 5 5 5 5 5 11 -3.5 -3.54063 -3.58125 -3.62188 -3.6625 -3.70313 -3.74375 -3.78438 -3.825 -3.86563 -3.90625 
4 137 146 138 129 10 5 5 5 5 5 5 5 5 5 5 11 -3.5 -3.68375 -3.8675 -4.05125 -4.235 -4.41875 -4.6025 -4.78625 -4.97 -5.15375 -5.3375 
4 138 147 139 130 10 5 5 5 5 5 5 5 5 5 5 11 -3.5 -3.68625 -3.8725 -4.05875 -4.245 -4.43125 -4.6175 -4.80375 -4.99 -5.17625 -5.3625 
4 139 148 140 131 10 5 5 5 5 5 5 5 5 5 5 11 -3.5 -3.68875 -3.8775 -4.06625 -4.255 -4.44375 -4.6325 -4.82125 -5.01 -5.19875 -5.3875 
4 140 149 141 132 10 5 5 5 5 5 5 5 5 5 5 11 -3.5 -3.69125 -3.8825 -4.07375 -4.265 -4.45625 -4.6475 -4.83875 -5.03 -5.22125 -5.4125 
4 142 133 141 150 10 5 5 5 5 5 5 5 5 5 5 11 -3.5 -3.56875 -3.6375 -3.70625 -3.775 -3.84375 -3.9125 -3.98125 -4.05 -4.11875 -4.1875 
4 143 134 142 151 10 0 0 0 0 0 0 0 0 0 0 11 -1.48125 -1.48125 -1.48125 -1.48125 -1.48125 -1.48125 -1.48125 -1.48125 -1.48125 -1.48125 -1.48125 
4 144 153 145 136 10 0 0 0 0 0 0 0 0 0 0 11 -1.25 -1.25 -1.25 -1.25 -1.25 -1.25 -1.25 -1.25 -1.25 -1.25 -1.25 
4 145 154 146 137 10 5 5 5 5 5 5 5 5 5 5 11 -3.5 -3.54188 -3.58375 -3.62563 -3.6675 -3.70938 -3.75125 -3.79312 -3.835 -3.87687 -3.91875 
4 146 155 147 138 10 5 5 5 5 5 5 5 5 5 5 11 -3.5 -3.68625 -3.8725 -4.05875 -4.245 -4.43125 -4.6175 -4.80375 -4.99 -5.17625 -5.3625 
4 147 156 148 139 10 5 5 5 5 5 5 5 5 5 5 11 -3.5 -3.68875 -3.8775 -4.06625 -4.255 -4.44375 -4.6325 -4.82125 -5.01 -5.19875 -5.3875 
4 148 157 149 140 10 5 5 5 5 5 5 5 5 5 5 11 -3.5 -3.69125 -3.8825 -4.07375 -4.265 -4.45625 -4.6475 -4.83875 -5.03 -5.22125 -5.4125 
4 149 158 150 141 10 5 5 5 5 5 5 5 5 5 5 11 -3.5 -3.69375 -3.8875 -4.08125 -4.275 -4.46875 -4.6625 -4.85625 -5.05 -5.24375 -5.4375 
4 151 142 150 159 10 5 5 5 5 5 5 5 5 5 5 11 -3.5 -3.57125 -3.6425 -3.71375 -3.785 -3.85625 -3.9275 -3.99875 -4.07 -4.14125 -4.2125 
4 152 143 151 160 10 0 0 0 0 0 0 0 0 0 0 11 -1.49375 -1.49375 -1.49375 -1.49375 -1.49375 -1.49375 -1.49375 -1.49375 -1.49375 -1.49375 -1.49375 
4 153 162 154 145 10 0 0 0 0 0 0 0 0 0 0 11 -1.25 -1.25 -1.25 -1.25 -1.25 -1.25 -1.25 -1.25 -1.25 -1.25 -1.25 
4 154 163 155 146 10 5 5 5 5 5 5 5 5 5 5 11 -3.5 -3.54312 -3.58625 -3.62937 -3.6725 -3.71562 -3.75875 -3.80187 -3.845 -3.88812 -3.93125 
4 155 164 156 147 10 5 5 5 5 5 5 5 5 5 5 11 -3.5 -3.68875 -3.8775 -4.06625 -4.255 -4.44375 -4.6325 -4.82125 -5.01 -5.19875 -5.3875 
4 156 165 157 148 10 5 5 5 5 5 5 5 5 5 5 11 -3.5 -3.69125 -3.8825 -4.07375 -4.265 -4.45625 -4.6475 -4.83875 -5.03 -5.22125 -5.4125 
4 157 166 158 149 10 5 5 5 5 5 5 5 5 5 5 11 -3.5 -3.69375 -3.8875 -4.08125 -4.275 -4.46875 -4.6625 -4.85625 -5.05 -5.24375 -5.4375 
4 158 167 159 150 10 5 5 5 5 5 5 5 5 5 5 11 -3.5 -3.69625 -3.8925 -4.08875 -4.285 -4.48125 -4.6775 -4.87375 -5.07 -5.26625 -5.4625 
4 160 151 159 168 10 5 5 5 5 5 5 5 5 5 5 11 -3.5 -3.57375 -3.6475 -3.72125 -3.795 -3.86875 -3.9425 -4.01625 -4.09 -4.16375 -4.2375 
4 161 152 160 169 10 0 0 0 0 0 0 0 0 0 0 11 -1.5 -1.5 -1.5 -1.5 -1.5 -1.5 -1.5 -1.5 -1.5 -1.5 -1.5 
4 162 171 163 154 10 0 0 0 0 0 0 0 0 0 0 11 -1.25 -1.25 -1.25 -1.25 -1.25 -1.25 -1.25 -1.25 -1.25 -1.25 -1.25 
4 163 172 164 155 10 5 5 5 5 5 5 5 5 5 5 11 -3.5 -3.54437 -3.58875 -3.63312 -3.6775 -3.72187 -3.76625 -3.81062 -3.855 -3.89937 -3.94375 
4 164 173 165 156 10 5 5 5 5 5 5 5 5 5 5 11 -3.5 -3.69125 -3.8825 -4.07375 -4.265 -4.45625 -4.6475 -4.83875 -5.03 -5.22125 -5.4125 
4 165 174 166 157 10 5 5 5 5 5 5 5 5 5 5 11 -3.5 -3.69375 -3.8875 -4.08125 -4.275 -4.46875 -4.6625 -4.85625 -5.05 -5.24375 -5.4375 
4 166 175 167 158 10 5 5 5 5 5 5 5 5 5 5 11 -3.5 -3.69625 -3.8925 -4.08875 -4.285 -4.48125 -4.6775 -4.87375 -5.07 -5.26625 -5.4625 
4 167 176 168 159 10 5 5 5 5 5 5 5 5 5 5 11 -3.5 -3.69875 -3.8975 -4.09625 -4.295 -4.49375 -4.6925 -4.89125 -5.09 -5.28875 -5.4875 
4 169 160 168 177 10 5 5 5 5 5 5 5 5 5 5 11 -3.5 -3.57562 -3.65125 -3.72687 -3.8025 -3.87812 -3.95375 -4.02937 -4.105 -4.18062 -4.25625 
4 170 161 169 178 10 0 0 0 0 0 0 0 0 0 0 11 -1.5 -1.5 -1.5 -1.5 -1.5 -1.5 -1.5 -1.5 -1.5 -1.5 -1.5 
4 171 180 172 163 10 0 0 0 0 0 0 0 0 0 0 11 -1.25 -1.25 -1.25 -1.25 -1.25 -1.25 -1.25 -1.25 -1.25 -1.25 -1.25 
4 172 181 173 164 10 5 5 5 5 5 5 5 5 5 5 11 -3.5 -3.54562 -3.59125 -3.63687 -3.6825 -3.72812 -3.77375 -3.81937 -3.865 -3.91062 -3.95625 
4 173 182 174 165 10 5 5 5 5 5 5 5 5 5 5 11 -3.5 -3.69375 -3.8875 -4.08125 -4.275 -4.46875 -4.6625 -4.85625 -5.05 -5.24375 -5.4375 
4 174 183 175 166 10 5 5 5 5 5 5 5 5 5 5 11 -3.5 -3.69625 -3.8925 -4.08875 -4.285 -4.48125 -4.6775 -4.87375 -5.07 -5.26625 -5.4625 
4 175 184 176 167 10 5 5 5 5 5 5 5 5 5 5 11 -3.5 -3.69875 -3.8975 -4.09625 -4.295 -4.49375 -4.6925 -4.89125 -5.09 -5.28875 -5.4875 
4 176 185 177 168 10 5 5 5 5 5 5 5 5 5 5 11 -3.5 -3.70125 -3.9025 -4.10375 -4.305 -4.50625 -4.7075 -4.90875 -5.11 -5.31125 -5.5125 
4 178 169 177 186 10 5 5 5 5 5 5 5 5 5 5 11 -3.5 -3.57687 -3.65375 -3.73062 -3.8075 -3.88437 -3.96125 -4.03813 -4.115 -4.19188 -4.26875 
4 179 170 178 187 10 0 0 0 0 0 0 0 0 0 0 11 -1.5 -1.5 -1.5 -1.5 -1.5 -1.5 -1.5 -1.5 -1.5 -1.5 -1.5 
4 180 189 181 172 10 0 0 0 0 0 0 0 0 0 0 11 -1.25 -1.25 -1.25 -1.25 -1.25 -1.25 -1.25 -1.25 -1.25 -1.25 -1.25 
4 181 190 182 173 10 5 5 5 5 5 5 5 5 5 5 11 -3.5 -3.54688 -3.59375 -3.64062 -3.6875 -3.73438 -3.78125 -3.82812 -3.875 -3.92188 -3.96875 
4 182 191 183 174 10 5 5 5 5 5 5 5 5 5 5 11 -3.5 -3.69625 -3.8925 -4.08875 -4.285 -4.48125 -4.6775 -4.87375 -5.07 -5.26625 -5.4625 
4 183 192 184 175 10 5 5 5 5 5 5 5 5 5 5 11 -3.5 -3.69875 -3.8975 -4.09625 -4.295 -4.49375 -4.6925 -4.89125 -5.09 -5.28875 -5.4875 
4 184 193 185 176 10 5 5 5 5 5 5 5 5 5 5 11 -3.5 -3.70125 -3.9025 -4.10375 -4.305 -4.50625 -4.7075 -4.90875 -5.11 -5.31125 -5.5125 
4 185 194 186 177 10 5 5 5 5 5 5 5 5 5 5 11 -3.5 -3.70375 -3.9075 -4.11125 -4.315 -4.51875 -4.7225 -4.92625 -5.13 -5.33375 -5.5375 
4 187 178 186 195 10 5 5 5 5 5 5 5 5 5 5 11 -3.5 -3.57812 -3.65625 -3.73438 -3.8125 -3.89062 -3.96875 -4.04688 -4.125 -4.20312 -4.28125 
4 188 179 187 196 10 0 0 0 0 0 0 0 0 0 0 11 -1.5 -1.5 -1.5 -1.5 -1.5 -1.5 -1.5 -1.5 -1.5 -1.5 -1.5 
4 189 198 190 181 10 0 0 0 0 0 0 0 0 0 0 11 -1.25 -1.25 -1.25 -1.25 -1.25 -1.25 -1.25 -1.25 -1.25 -1.25 -1.25 
4 190 199 191 182 10 5 5 5 5 5 5 5 5 5 5 11 -3.5 -3.54813 -3.59625 -3.64438 -3.6925 -3.74063 -3.78875 -3.83688 -3.885 -3.93313 -3.98125 
4 191 200 192 183 10 5 5 5 5 5 5 5 5 5 5 11 -3.5 -3.69875 -3.8975 -4.09625 -4.295 -4.49375 -4.6925 -4.89125 -5.09 -5.28875 -5.4875 
4 192 201 193 184 10 5 5 5 5 5 5 5 5 5 5 11 -3.5 -3.70125 -3.9025 -4.10375 -4.305 -4.50625 -4.7075 -4.90875 -5.11 -5.31125 -5.5125 
4 193 202 194 185 10 5 5 5 5 5 5 5 5 5 5 11 -3.5 -3.70375 -3.9075 -4.11125 -4.315 -4.51875 -4.7225 -4.92625 -5.13 -5.33375 -5.5375 
4 194 203 195 186 10 5 5 5 5 5 5 5 5 5 5 11 -3.5 -3.70625 -3.9125 -4.11875 -4.325 -4.53125 -4.7375 -4.94375 -5.15 -5.35625 -5.5625 
4 196 187 195 204 10 5 5 5 5 5 5 5 5 5 5 11 -3.5 -3.57938 -3.65875 -3.73813 -3.8175 -3.89688 -3.97625 -4.05562 -4.135 -4.21437 -4.29375 
4 197 188 196 205 10 0 0 0 0 0 0 0 0 0 0 11 -1.5 -1.5 -1.5 -1.5 -1.5 -1.5 -1.5 -1.5 -1.5 -1.5 -1.5 
4 198 207 199 190 10 0 0 0 0 0 0 0 0 0 0 11 -1.25 -1.25 -1.25 -1.25 -1.25 -1.25 -1.25 -1.25 -1.25 -1.25 -1.25 
4 199 208 200 191 10 5 5 5 5 5 5 5 5 5 5 11 -3.5 -3.54938 -3.59875 -3.64813 -3.6975 -3.74688 -3.79625 -3.84563 -3.895 -3.94438 -3.99375 
4 200 209 201 192 10 5 5 5 5 5 5 5 5 5 5 11 -3.5 -3.70125 -3.9025 -4.10375 -4.305 -4.50625 -4.7075 -4.90875 -5.11 -5.31125 -5.5125 
4 201 210 202 193 10 5 5 5 5 5 5 5 5 5 5 11 -3.5 -3.70375 -3.9075 -4.11125 -4.315 -4.51875 -4.7225 -4.92625 -5.13 -5.33375 -5.5375 
4 202 211 203 194 10 5 5 5 5 5 5 5 5 5 5 11 -3.5 -3.70625 -3.9125 -4.11875 -4.325 -4.53125 -4.7375 -4.94375 -5.15 -5.35625 -5.5625 
4 203 212 204 195 10 5 5 5 5 5 5 5 5 5 5 11 -3.5 -3.70875 -3.9175 -4.12625 -4.335 -4.54375 -4.7525 -4.96125 -5.17 -5.37875 -5.5875 
4 205 196 204 213 10 5 5 5 5 5 5 5 5 5 5 11 -3.5 -3.58063 -3.66125 -3.74188 -3.8225 -3.90313 -3.98375 -4.06438 -4.145 -4.22563 -4.30625 
4 206 197 205 214 10 0 0 0 0 0 0 0 0 0 0 11 -1.5 -1.5 -1.5 -1.5 -1.5 -1.5 -1.5 -1.5 -1.5 -1.5 -1.5 
4 207 216 208 199 10 0 0 0 0 0 0 0 0 0 0 11 -1.25 -1.25 -1.25 -1.25 -1.25 -1.25 -1.25 -1.25 -1.25 -1.25 -1.25 
4 208 217 209 200 10 5 5 5 5 5 5 5 5 5 5 11 -3.5 -3.55125 -3.6025 -3.65375 -3.705 -3.75625 -3.8075 -3.85875 -3.91 -3.96125 -4.0125 
4 209 218 210 201 10 5 5 5 5 5 5 5 5 5 5 11 -3.5 -3.70375 -3.9075 -4.11125 -4.315 -4.51875 -4.7225 -4.92625 -5.13 -5.33375 -5.5375 
4 210 219 211 202 10 5 5 5 5 5 5 5 5 5 5 11 -3.5 -3.70625 -3.9125 -4.11875 -4.325 -4.53125 -4.7375 -4.94375 -5.15 -5.35625 -5.5625 
4 211 220 212 203 10 5 5 5 5 5 5 5 5 5 5 11 -3.5 -3.70875 -3.9175 -4.12625 -4.335 -4.54375 -4.7525 -4.96125 -5.17 -5.37875 -5.5875 
4 212 221 213 204 10 5 5 5 5 5 5 5 5 5 5 11 -3.5 -3.71125 -3.9225 -4.13375 -4.345 -4.55625 -4.7675 -4.97875 -5.19 -5.40125 -5.6125 
4 214 205 213 222 10 5 5 5 5 5 5 5 5 5 5 11 -3.5 -3.58188 -3.66375 -3.74563 -3.8275 -3.90937 -3.99125 -4.07312 -4.155 -4.23687 -4.31875 
4 215 206 214 223 10 0 0 0 0 0 0 0 0 0 0 11 -1.5 -1.5 -1.5 -1.5 -1.5 -1.5 -1.5 -1.5 -1.5 -1.5 -1.5 
4 216 225 217 208 10 0 0 0 0 0 0 0 0 0 0 11 -1.25625 -1.25625 -1.25625 -1.25625 -1.25625 -1.25625 -1.25625 -1.25625 -1.25625 -1.25625 -1.25625 
4 217 226 218 209 10 5 5 5 5 5 5 5 5 5 5 11 -3.5 -3.55375 -3.6075 -3.66125 -3.715 -3.76875 -3.8225 -3.87625 -3.93 -3.98375 -4.0375 
4 218 227 219 210 10 5 5 5 5 5 5 5 5 5 5 11 -3.5 -3.70625 -3.9125 -4.11875 -4.325 -4.53125 -4.7375 -4.94375 -5.15 -5.35625 -5.5625 
4 219 228 220 211 10 5 5 5 5 5 5 5 5 5 5 11 -3.5 -3.70875 -3.9175 -4.12625 -4.335 -4.54375 -4.7525 -4.96125 -5.17 -5.37875 -5.5875 
4 220 229 221 212 10 5 5 5 5 5 5 5 5 5 5 11 -3.5 -3.71125 -3.9225 -4.13375 -4.345 -4.55625 -4.7675 -4.97875 -5.19 -5.40125 -5.6125 
4 221 230 222 213 10 5 5 5 5 5 5 5 5 5 5 11 -3.5 -3.71375 -3.9275 -4.14125 -4.355 -4.56875 -4.7825 -4.99625 -5.21 -5.42375 -5.6375 
4 223 214 222 231 10 5 5 5 5 5 5 5 5 5 5 11 -3.5 -3.58313 -3.66625 -3.74938 -3.8325 -3.91563 -3.99875 -4.08188 -4.165 -4.24813 -4.33125 
4 224 215 223 232 10 0 0 0 0 0 0 0 0 0 0 11 -1.5 -1.5 -1.5 -1.5 -1.5 -1.5 -1.5 -1.5 -1.5 -1.5 -1.5 
4 225 234 226 217 10 0 0 0 0 0 0 0 0 0 0 11 -1.26875 -1.26875 -1.26875 -1.26875 -1.26875 -1.26875 -1.26875 -1.26875 -1.26875 -1.26875 -1.26875 
4 226 235 227 218 10 5 5 5 5 5 5 5 5 5 5 11 -3.5 -3.55625 -3.6125 -3.66875 -3.725 -3.78125 -3.8375 -3.89375 -3.95 -4.00625 -4.0625 
4 227 236 228 219 10 5 5 5 5 5 5 5 5 5 5 11 -3.5 -3.70875 -3.9175 -4.12625 -4.335 -4.54375 -4.7525 -4.96125 -5.17 -5.37875 -5.5875 
4 228 237 229 220 10 5 5 5 5 5 5 5 5 5 5 11 -3.5 -3.71125 -3.9225 -4.13375 -4.345 -4.55625 -4.7675 -4.97875 -5.19 -5.40125 -5.6125 
4 229 238 230 221 10 5 5 5 5 5 5 5 5 5 5 11 -3.5 -3.71375 -3.9275 -4.14125 -4.355 -4.56875 -4.7825 -4.99625 -5.21 -5.42375 -5.6375 
4 230 239 231 222 10 5 5 5 5 5 5 5 5 5 5 11 -3.5 -3.71625 -3.9325 -4.14875 -4.365 -4.58125 -4.7975 -5.01375 -5.23 -5.44625 -5.6625 
4 232 223 231 240 10 5 5 5 5 5 5 5 5 5 5 11 -3.5 -3.58437 -3.66875 -3.75312 -3.8375 -3.92187 -4.00625 -4.09062 -4.175 -4.25937 -4.34375 
4 233 224 232 241 10 0 0 0 0 0 0 0 0 0 0 11 -1.5 -1.5 -1.5 -1.5 -1.5 -1.5 -1.5 -1.5 -1.5 -1.5 -1.5 
4 234 243 235 226 10 0 0 0 0 0 0 0 0 0 0 11 -1.28125 -1.28125 -1.28125 -1.28125 -1.28125 -1.28125 -1.28125 -1.28125 -1.28125 -1.28125 -1.28125 
4 235 244 236 227 10 5 5 5 5 5 5 5 5 5 5 11 -3.5 -3.55875 -3.6175 -3.67625 -3.735 -3.79375 -3.8525 -3.91125 -3.97 -4.02875 -4.0875 
4 236 245 237 228 10 5 5 5 5 5 5 5 5 5 5 11 -3.5 -3.71125 -3.9225 -4.13375 -4.345 -4.55625 -4.7675 -4.97875 -5.19 -5.40125 -5.6125 
4 237 246 238 229 10 5 5 5 5 5 5 5 5 5 5 11 -3.5 -3.71375 -3.9275 -4.14125 -4.355 -4.56875 -4.7825 -4.99625 -5.21 -5.42375 -5.6375 
4 238 247 239 230 10 5 5 5 5 5 5 5 5 5 5 11 -3.5 -3.71625 -3.9325 -4.14875 -4.365 -4.58125 -4.7975 -5.01375 -5.23 -5.44625 -5.6625 
4 239 248 240 231 10 5 5 5 5 5 5 5 5 5 5 11 -3.5 -3.71875 -3.9375 -4.15625 -4.375 -4.59375 -4.8125 -5.03125 -5.25 -5.46875 -5.6875 
4 241 232 240 249 10 5 5 5 5 5 5 5 5 5 5 11 -3.5 -3.58562 -3.67125 -3.75687 -3.8425 -3.92812 -4.01375 -4.09937 -4.185 -4.27063 -4.35625 
4 242 233 241 250 10 0 0 0 0 0 0 0 0 0 0 11 -1.5 -1.5 -1.5 -1.5 -1.5 -1.5 -1.5 -1.5 -1.5 -1.5 -1.5 
4 243 252 244 235 10 0 0 0 0 0 0 0 0 0 0 11 -1.29375 -1.29375 -1.29375 -1.29375 -1.29375 -1.29375 -1.29375 -1.29375 -1.29375 -1.29375 -1.29375 
4 244 253 245 236 10 5 5 5 5 5 5 5 5 5 5 11 -3.5 -3.56125 -3.6225 -3.68375 -3.745 -3.80625 -3.8675 -3.92875 -3.99 -4.05125 -4.1125 
4 245 254 246 237 10 5 5 5 5 5 5 5 5 5 5 11 -3.5 -3.71375 -3.9275 -4.14125 -4.355 -4.56875 -4.7825 -4.99625 -5.21 -5.42375 -5.6375 
4 246 255 247 238 10 5 5 5 5 5 5 5 5 5 5 11 -3.5 -3.71625 -3.9325 -4.14875 -4.365 -4.58125 -4.7975 -5.01375 -5.23 -5.44625 -5.6625 
4 247 256 248 239 10 5 5 5 5 5 5 5 5 5 5 11 -3.5 -3.71875 -3.9375 -4.15625 -4.375 -4.59375 -4.8125 -5.03125 -5.25 -5.46875 -5.6875 
4 248 257 249 240 10 5 5 5 5 5 5 5 5 5 5 11 -3.5 -3.72125 -3.9425 -4.16375 -4.385 -4.60625 -4.8275 -5.04875 -5.27 -5.49125 -5.7125 
4 250 241 249 258 10 5 5 5 5 5 5 5 5 5 5 11 -3.5 -3.58687 -3.67375 -3.76062 -3.8475 -3.93437 -4.02125 -4.10812 -4.195 -4.28187 -4.36875 
4 251 242 250 259 10 0 0 0 0 0 0 0 0 0 0 11 -1.5 -1.5 -1.5 -1.5 -1.5 -1.5 -1.5 -1.5 -1.5 -1.5 -1.5 
4 252 261 253 244 10 0 0 0 0 0 0 0 0 0 0 11 -1.30625 -1.30625 -1.30625 -1.30625 -1.30625 -1.30625 -1.30625 -1.30625 -1.30625 -1.30625 -1.30625 
4 253 262 254 245 10 5 5 5 5 5 5 5 5 5 5 11 -3.5 -3.56375 -3.6275 -3.69125 -3.755 -3.81875 -3.8825 -3.94625 -4.01 -4.07375 -4.1375 
4 254 263 255 246 10 5 5 5 5 5 5 5 5 5 5 11 -3.5 -3.71625 -3.9325 -4.14875 -4.365 -4.58125 -4.7975 -5.01375 -5.23 -5.44625 -5.6625 
4 255 264 256 247 10 5 5 5 5 5 5 5 5 5 5 11 -3.5 -3.71875 -3.9375 -4.15625 -4.375 -4.59375 -4.8125 -5.03125 -5.25 -5.46875 -5.6875 
4 256 265 257 248 10 5 5 5 5 5 5 5 5 5 5 11 -3.5 -3.72125 -3.9425 -4.16375 -4.385 -4.60625 -4.8275 -5.04875 -5.27 -5.49125 -5.7125 
4 257 266 258 249 10 5 5 5 5 5 5 5 5 5 5 11 -3.5 -3.72375 -3.9475 -4.17125 -4.395 -4.61875 -4.8425 -5.06625 -5.29 -5.51375 -5.7375 
4 259 250 258 267 10 5 5 5 5 5 5 5 5 5 5 11 -3.5 -3.58812 -3.67625 -3.76437 -3.8525 -3.94062 -4.02875 -4.11687 -4.205 -4.29313 -4.38125 
4 260 251 259 268 10 0 0 0 0 0 0 0 0 0 0 11 -1.5 -1.5 -1.5 -1.5 -1.5 -1.5 -1.5 -1.5 -1.5 -1.5 -1.5 
4 261 270 262 253 10 0 0 0 0 0 0 0 0 0 0 11 -1.31875 -1.31875 -1.31875 -1.31875 -1.31875 -1.31875 -1.31875 -1.31875 -1.31875 -1.31875 -1.31875 
4 262 271 263 254 10 5 5 5 5 5 5 5 5 5 5 11 -3.5 -3.56625 -3.6325 -3.69875 -3.765 -3.83125 -3.8975 -3.96375 -4.03 -4.09625 -4.1625 
4 263 272 264 255 10 5 5 5 5 5 5 5 5 5 5 11 -3.5 -3.71875 -3.9375 -4.15625 -4.375 -4.59375 -4.8125 -5.03125 -5.25 -5.46875 -5.6875 
4 264 273 265 256 10 5 5 5 5 5 5 5 5 5 5 11 -3.5 -3.72125 -3.9425 -4.16375 -4.385 -4.60625 -4.8275 -5.04875 -5.27 -5.49125 -5.7125 
4 265 274 266 257 10 5 5 5 5 5 5 5 5 5 5 11 -3.5 -3.72375 -3.9475 -4.17125 -4.395 -4.61875 -4.8425 -5.06625 -5.29 -5.51375 -5.7375 
4 266 275 267 258 10 5 5 5 5 5 5 5 5 5 5 11 -3.5 -3.72625 -3.9525 -4.17875 -4.405 -4.63125 -4.8575 -5.08375 -5.31 -5.53625 -5.7625 
4 268 259 267 276 10 5 5 5 5 5 5 5 5 5 5 11 -3.5 -3.58938 -3.67875 -3.76813 -3.8575 -3.94688 -4.03625 -4.12563 -4.215 -4.30438 -4.39375 
4 269 260 268 277 10 0 0 0 0 0 0 0 0 0 0 11 -1.5 -1.5 -1.5 -1.5 -1.5 -1.5 -1.5 -1.5 -1.5 -1.5 -1.5 
4 270 279 271 262 10 0 0 0 0 0 0 0 0 0 0 11 -1.33125 -1.33125 -1.33125 -1.33125 -1.33125 -1.33125 -1.33125 -1.33125 -1.33125 -1.33125 -1.33125 
4 271 280 272 263 10 5 5 5 5 5 5 5 5 5 5 11 -3.5 -3.56875 -3.6375 -3.70625 -3.775 -3.84375 -3.9125 -3.98125 -4.05 -4.11875 -4.1875 
4 272 281 273 264 10 5 5 5 5 5 5 5 5 5 5 11 -3.5 -3.72125 -3.9425 -4.16375 -4.385 -4.60625 -4.8275 -5.04875 -5.27 -5.49125 -5.7125 
4 273 282 274 265 10 5 5 5 5 5 5 5 5 5 5 11 -3.5 -3.72375 -3.9475 -4.17125 -4.395 -4.61875 -4.8425 -5.06625 -5.29 -5.51375 -5.7375 
4 274 283 275 266 10 5 5 5 5 5 5 5 5 5 5 11 -3.5 -3.72625 -3.9525 -4.17875 -4.405 -4.63125 -4.8575 -5.08375 -5.31 -5.53625 -5.7625 
4 275 284 276 267 10 5 5 5 5 5 5 5 5 5 5 11 -3.5 -3.72875 -3.9575 -4.18625 -4.415 -4.64375 -4.8725 -5.10125 -5.33 -5.55875 -5.7875 
4 277 268 276 285 10 5 5 5 5 5 5 5 5 5 5 11 -3.5 -3.59063 -3.68125 -3.77188 -3.8625 -3.95313 -4.04375 -4.13438 -4.225 -4.31562 -4.40625 
4 278 269 277 286 10 0 0 0 0 0 0 0 0 0 0 11 -1.5 -1.5 -1.5 -1.5 -1.5 -1.5 -1.5 -1.5 -1.5 -1.5 -1.5 
4 279 288 280 271 10 0 0 0 0 0 0 0 0 0 0 11 -1.34375 -1.34375 -1.34375 -1.34375 -1.34375 -1.34375 -1.34375 -1.34375 -1.34375 -1.34375 -1.34375 
4 280 289 281 272 10 5 5 5 5 5 5 5 5 5 5 11 -3.5 -3.57125 -3.6425 -3.71375 -3.785 -3.85625 -3.9275 -3.99875 -4.07 -4.14125 -4.2125 
4 281 290 282 273 10 5 5 5 5 5 5 5 5 5 5 11 -3.5 -3.72375 -3.9475 -4.17125 -4.395 -4.61875 -4.8425 -5.06625 -5.29 -5.51375 -5.7375 
4 282 291 283 274 10 5 5 5 5 5 5 5 5 5 5 11 -3.5 -3.72625 -3.9525 -4.17875 -4.405 -4.63125 -4.8575 -5.08375 -5.31 -5.53625 -5.7625 
4 283 292 284 275 10 5 5 5 5 5 5 5 5 5 5 11 -3.5 -3.72875 -3.9575 -4.18625 -4.415 -4.64375 -4.8725 -5.10125 -5.33 -5.55875 -5.7875 
4 284 293 285 276 10 5 5 5 5 5 5 5 5 5 5 11 -3.5 -3.73125 -3.9625 -4.19375 -4.425 -4.65625 -4.8875 -5.11875 -5.35 -5.58125 -5.8125 
4 286 277 285 294 10 5 5 5 5 5 5 5 5 5 5 11 -3.5 -3.59188 -3.68375 -3.77562 -3.8675 -3.95937 -4.05125 -4.14313 -4.235 -4.32688 -4.41875 
4 287 278 286 295 10 0 0 0 0 0 0 0 0 0 0 11 -1.5 -1.5 -1.5 -1.5 -1.5 -1.5 -1.5 -1.5 -1.5 -1.5 -1.5 
4 288 297 289 280 10 0 0 0 0 0 0 0 0 0 0 11 -1.35625 -1.35625 -1.35625 -1.35625 -1.35625 -1.35625 -1.35625 -1.35625 -1.35625 -1.35625 -1.35625 
4 289 298 290 281 10 5 5 5 5 5 5 5 5 5 5 11 -3.5 -3.57375 -3.6475 -3.72125 -3.795 -3.86875 -3.9425 -4.01625 -4.09 -4.16375 -4.2375 
4 290 299 291 282 10 5 5 5 5 5 5 5 5 5 5 11 -3.5 -3.72625 -3.9525 -4.17875 -4.405 -4.63125 -4.8575 -5.08375 -5.31 -5.53625 -5.7625 
4 291 300 292 283 10 5 5 5 5 5 5 5 5 5 5 11 -3.5 -3.72875 -3.9575 -4.18625 -4.415 -4.64375 -4.8725 -5.10125 -5.33 -5.55875 -5.7875 
4 292 301 293 284 10 5 5 5 5 5 5 5 5 5 5 11 -3.5 -3.73125 -3.9625 -4.19375 -4.425 -4.65625 -4.8875 -5.11875 -5.35 -5.58125 -5.8125 
4 293 302 294 285 10 5 5 5 5 5 5 5 5 5 5 11 -3.5 -3.73375 -3.9675 -4.20125 -4.435 -4.66875 -4.9025 -5.13625 -5.37 -5.60375 -5.8375 
4 295 286 294 303 10 5 5 5 5 5 5 5 5 5 5 11 -3.5 -3.59313 -3.68625 -3.77938 -3.8725 -3.96563 -4.05875 -4.15188 -4.245 -4.33812 -4.43125 
4 296 287 295 304 10 0 0 0 0 0 0 0 0 0 0 11 -1.5 -1.5 -1.5 -1.5 -1.5 -1.5 -1.5 -1.5 -1.5 -1.5 -1.5 
4 297 306 298 289 10 0 0 0 0 0 0 0 0 0 0 11 -1.36875 -1.36875 -1.36875 -1.36875 -1.36875 -1.36875 -1.36875 -1.36875 -1.36875 -1.36875 -1.36875 
4 298 307 299 290 10 5 5 5 5 5 5 5 5 5 5 11 -3.5 -3.57625 -3.6525 -3.72875 -3.805 -3.88125 -3.9575 -4.03375 -4.11 -4.18625 -4.2625 
4 299 308 300 291 10 5 5 5 5 5 5 5 5 5 5 11 -3.5 -3.72875 -3.9575 -4.18625 -4.415 -4.64375 -4.8725 -5.10125 -5.33 -5.55875 -5.7875 
4 300 309 301 292 10 5 5 5 5 5 5 5 5 5 5 11 -3.5 -3.73125 -3.9625 -4.19375 -4.425 -4.65625 -4.8875 -5.11875 -5.35 -5.58125 -5.8125 
4 301 310 302 293 10 5 5 5 5 5 5 5 5 5 5 11 -3.5 -3.73375 -3.9675 -4.20125 -4.435 -4.66875 -4.9025 -5.13625 -5.37 -5.60375 -5.8375 
4 302 311 303 294 10 5 5 5 5 5 5 5 5 5 5 11 -3.5 -3.73625 -3.9725 -4.20875 -4.445 -4.68125 -4.9175 -5.15375 -5.39 -5.62625 -5.8625 
4 304 295 303 312 10 5 5 5 5 5 5 5 5 5 5 11 -3.5 -3.59438 -3.68875 -3.78312 -3.8775 -3.97187 -4.06625 -4.16062 -4.255 -4.34938 -4.44375 
4 305 296 304 313 10 0 0 0 0 0 0 0 0 0 0 11 -1.5 -1.5 -1.5 -1.5 -1.5 -1.5 -1.5 -1.5 -1.5 -1.5 -1.5 
4 306 315 307 298 10 0 0 0 0 0 0 0 0 0 0 11 -1.38125 -1.38125 -1.38125 -1.38125 -1.38125 -1.38125 -1.38125 -1.38125 -1.38125 -1.38125 -1.38125 
4 307 316 308 299 10 5 5 5 5 5 5 5 5 5 5 11 -3.5 -3.57875 -3.6575 -3.73625 -3.815 -3.89375 -3.9725 -4.05125 -4.13 -4.20875 -4.2875 
4 308 317 309 300 10 5 5 5 5 5 5 5 5 5 5 11 -3.5 -3.73125 -3.9625 -4.19375 -4.425 -4.65625 -4.8875 -5.11875 -5.35 -5.58125 -5.8125 
4 309 318 310 301 10 5 5 5 5 5 5 5 5 5 5 11 -3.5 -3.73375 -3.9675 -4.20125 -4.435 -4.66875 -4.9025 -5.13625 -5.37 -5.60375 -5.8375 
4 310 319 311 302 10 5 5 5 5 5 5 5 5 5 5 11 -3.5 -3.73625 -3.9725 -4.20875 -4.445 -4.68125 -4.9175 -5.15375 -5.39 -5.62625 -5.8625 
4 311 320 312 303 10 5 5 5 5 5 5 5 5 5 5 11 -3.5 -3.73875 -3.9775 -4.21625 -4.455 -4.69375 -4.9325 -5.17125 -5.41 -5.64875 -5.8875 
4 313 304 312 321 10 5 5 5 5 5 5 5 5 5 5 11 -3.5 -3.59562 -3.69125 -3.78687 -3.8825 -3.97812 -4.07375 -4.16937 -4.265 -4.36062 -4.45625 
4 314 305 313 322 10 0 0 0 0 0 0 0 0 0 0 11 -1.5 -1.5 -1.5 -1.5 -1.5 -1.5 -1.5 -1.5 -1.5 -1.5 -1.5 
4 315 324 316 307 10 0 0 0 0 0 0 0 0 0 0 11 -1.39375 -1.39375 -1.39375 -1.39375 -1.39375 -1.39375 -1.39375 -1.39375 -1.39375 -1.39375 -1.39375 
4 316 325 317 308 10 5 5 5 5 5 5 5 5 5 5 11 -3.5 -3.58125 -3.6625 -3.74375 -3.825 -3.90625 -3.9875 -4.06875 -4.15 -4.23125 -4.3125 
4 317 326 318 309 10 5 5 5 5 5 5 5 5 5 5 11 -3.5 -3.73375 -3.9675 -4.20125 -4.435 -4.66875 -4.9025 -5.13625 -5.37 -5.60375 -5.8375 
4 318 327 319 310 10 5 5 5 5 5 5 5 5 5 5 11 -3.5 -3.73625 -3.9725 -4.20875 -4.445 -4.68125 -4.9175 -5.15375 -5.39 -5.62625 -5.8625 
4 319 328 320 311 10 5 5 5 5 5 5 5 5 5 5 11 -3.5 -3.73875 -3.9775 -4.21625 -4.455 -4.69375 -4.9325 -5.17125 -5.41 -5.64875 -5.8875 
4 320 329 321 312 10 5 5 5 5 5 5 5 5 5 5 11 -3.5 -3.74125 -3.9825 -4.22375 -4.465 -4.70625 -4.9475 -5.18875 -5.43 -5.67125 -5.9125 
4 322 313 321 330 10 5 5 5 5 5 5 5 5 5 5 11 -3.5 -3.59687 -3.69375 -3.79062 -3.8875 -3.98437 -4.08125 -4.17812 -4.275 -4.37188 -4.46875 
4 323 314 322 331 10 0 0 0 0 0 0 0 0 0 0 11 -1.5 -1.5 -1.5 -1.5 -1.5 -1.5 -1.5 -1.5 -1.5 -1.5 -1.5 
4 324 333 325 316 10 0 0 0 0 0 0 0 0 0 0 11 -1.40625 -1.40625 -1.40625 -1.40625 -1.40625 -1.40625 -1.40625 -1.40625 -1.40625 -1.40625 -1.40625 
4 325 334 326 317 10 5 5 5 5 5 5 5 5 5 5 11 -3.5 -3.58375 -3.6675 -3.75125 -3.835 -3.91875 -4.0025 -4.08625 -4.17 -4.25375 -4.3375 
4 326 335 327 318 10 5 5 5 5 5 5 5 5 5 5 11 -3.5 -3.73625 -3.9725 -4.20875 -4.445 -4.68125 -4.9175 -5.15375 -5.39 -5.62625 -5.8625 
4 327 336 328 319 10 5 5 5 5 5 5 5 5 5 5 11 -3.5 -3.73875 -3.9775 -4.21625 -4.455 -4.69375 -4.9325 -5.17125 -5.41 -5.64875 -5.8875 
4 328 337 329 320 10 5 5 5 5 5 5 5 5 5 5 11 -3.5 -3.74125 -3.9825 -4.22375 -4.465 -4.70625 -4.9475 -5.18875 -5.43 -5.67125 -5.9125 
4 329 338 330 321 10 5 5 5 5 5 5 5 5 5 5 11 -3.5 -3.74375 -3.9875 -4.23125 -4.475 -4.71875 -4.9625 -5.20625 -5.45 -5.69375 -5.9375 
4 331 322 330 339 10 5 5 5 5 5 5 5 5 5 5 11 -3.5 -3.59812 -3.69625 -3.79437 -3.8925 -3.99062 -4.08875 -4.18687 -4.285 -4.38312 -4.48125 
4 332 323 331 340 10 0 0 0 0 0 0 0 0 0 0 11 -1.5 -1.5 -1.5 -1.5 -1.5 -1.5 -1.5 -1.5 -1.5 -1.5 -1.5 
4 333 341 334 325 10 0 0 0 0 0 0 0 0 0 0 11 -1.41875 -1.41875 -1.41875 -1.41875 -1.41875 -1.41875 -1.41875 -1.41875 -1.41875 -1.41875 -1.41875 
4 334 342 335 326 10 5 5 5 5 5 5 5 5 5 5 11 -3.5 -3.58625 -3.6725 -3.75875 -3.845 -3.93125 -4.0175 -4.10375 -4.19 -4.27625 -4.3625 
4 335 343 336 327 10 5 5 5 5 5 5 5 5 5 5 11 -3.5 -3.73875 -3.9775 -4.21625 -4.455 -4.69375 -4.9325 -5.17125 -5.41 -5.64875 -5.8875 
4 336 344 337 328 10 5 5 5 5 5 5 5 5 5 5 11 -3.5 -3.74125 -3.9825 -4.22375 -4.465 -4.70625 -4.9475 -5.18875 -5.43 -5.67125 -5.9125 
4 337 345 338 329 10 5 5 5 5 5 5 5 5 5 5 11 -3.5 -3.74375 -3.9875 -4.23125 -4.475 -4.71875 -4.9625 -5.20625 -5.45 -5.69375 -5.9375 
4 338 346 339 330 10 5 5 5 5 5 5 5 5 5 5 11 -3.5 -3.74625 -3.9925 -4.23875 -4.485 -4.73125 -4.9775 -5.22375 -5.47 -5.71625 -5.9625 
4 340 331 339 347 10 5 5 5 5 5 5 5 5 5 5 11 -3.5 -3.59938 -3.69875 -3.79813 -3.8975 -3.99688 -4.09625 -4.19562 -4.295 -4.39437 -4.49375 
4 341 348 342 334 10 0 0 0 0 0 0 0 0 0 0 11 -1.43125 -1.43125 -1.43125 -1.43125 -1.43125 -1.43125 -1.43125 -1.43125 -1.43125 -1.43125 -1.43125 
4 342 349 343 335 10 5 5 5 5 5 5 5 5 5 5 11 -3.5 -3.58875 -3.6775 -3.76625 -3.855 -3.94375 -4.0325 -4.12125 -4.21 -4.29875 -4.3875 
4 343 350 344 336 10 5 5 5 5 5 5 5 5 5 5 11 -3.5 -3.74125 -3.9825 -4.22375 -4.465 -4.70625 -4.9475 -5.18875 -5.43 -5.67125 -5.9125 
4 344 351 345 337 10 5 5 5 5 5 5 5 5 5 5 11 -3.5 -3.74375 -3.9875 -4.23125 -4.475 -4.71875 -4.9625 -5.20625 -5.45 -5.69375 -5.9375 
4 345 352 346 338 10 5 5 5 5 5 5 5 5 5 5 11 -3.5 -3.74625 -3.9925 -4.23875 -4.485 -4.73125 -4.9775 -5.22375 -5.47 -5.71625 -5.9625 
4 346 353 347 339 10 5 5 5 5 5 5 5 5 5 5 11 -3.5 -3.74875 -3.9975 -4.24625 -4.495 -4.74375 -4.9925 -5.24125 -5.49 -5.73875 -5.9875 
4 348 354 349 342 10 0 0 0 0 0 0 0 0 0 0 11 -1.44375 -1.44375 -1.44375 -1.44375 -1.44375 -1.44375 -1.44375 -1.44375 -1.44375 -1.44375 -1.44375 
4 349 355 350 343 10 5 5 5 5 5 5 5 5 5 5 11 -3.5 -3.59125 -3.6825 -3.77375 -3.865 -3.95625 -4.0475 -4.13875 -4.23 -4.32125 -4.4125 
4 350 356 351 344 10 5 5 5 5 5 5 5 5 5 5 11 -3.5 -3.74375 -3.9875 -4.23125 -4.475 -4.71875 -4.9625 -5.20625 -5.45 -5.69375 -5.9375 
4 351 357 352 345 10 5 5 5 5 5 5 5 5 5 5 11 -3.5 -3.74625 -3.9925 -4.23875 -4.485 -4.73125 -4.9775 -5.22375 -5.47 -5.71625 -5.9625 
4 352 358 353 346 10 5 5 5 5 5 5 5 5 5 5 11 -3.5 -3.74875 -3.9975 -4.24625 -4.495 -4.74375 -4.9925 -5.24125 -5.49 -5.73875 -5.9875 
4 354 359 355 349 10 0 0 0 0 0 0 0 0 0 0 11 -1.45625 -1.45625 -1.45625 -1.45625 -1.45625 -1.45625 -1.45625 -1.45625 -1.45625 -1.45625 -1.45625 
4 355 360 356 350 10 5 5 5 5 5 5 5 5 5 5 11 -3.5 -3.59375 -3.6875 -3.78125 -3.875 -3.96875 -4.0625 -4.15625 -4.25 -4.34375 -4.4375 
4 356 361 357 351 10 5 5 5 5 5 5 5 5 5 5 11 -3.5 -3.74625 -3.9925 -4.23875 -4.485 -4.73125 -4.9775 -5.22375 -5.47 -5.71625 -5.9625 
4 357 362 358 352 10 5 5 5 5 5 5 5 5 5 5 11 -3.5 -3.74875 -3.9975 -4.24625 -4.495 -4.74375 -4.9925 -5.24125 -5.49 -5.73875 -5.9875 
4 359 363 360 355 10 0 0 0 0 0 0 0 0 0 0 11 -1.46875 -1.46875 -1.46875 -1.46875 -1.46875 -1.46875 -1.46875 -1.46875 -1.46875 -1.46875 -1.46875 
4 360 364 361 356 10 5 5 5 5 5 5 5 5 5 5 11 -3.5 -3.59625 -3.6925 -3.78875 -3.885 -3.98125 -4.0775 -4.17375 -4.27 -4.36625 -4.4625 
4 361 365 362 357 10 5 5 5 5 5 5 5 5 5 5 11 -3.5 -3.74875 -3.9975 -4.24625 -4.495 -4.74375 -4.9925 -5.24125 -5.49 -5.73875 -5.9875 
4 363 366 364 360 10 0 0 0 0 0 0 0 0 0 0 11 -1.48125 -1.48125 -1.48125 -1.48125 -1.48125 -1.48125 -1.48125 -1.48125 -1.48125 -1.48125 -1.48125 
4 364 367 365 361 10 5 5 5 5 5 5 5 5 5 5 11 -3.5 -3.59875 -3.6975 -3.79625 -3.895 -3.99375 -4.0925 -4.19125 -4.29 -4.38875 -4.4875 
4 366 368 367 364 10 0 0 0 0 0 0 0 0 0 0 11 -1.49375 -1.49375 -1.49375 -1.49375 -1.49375 -1.49375 -1.49375 -1.49375 -1.49375 -1.49375 -1.49375 
