ply
format ascii 1.0
element vertex 5
property double X
property double Y
property double Z
property double red
property double green
property double blue
element face 2
property list uchar uint vertex_indices
property double m
element edge 6
property uint vertex1
property uint vertex2
property double red_edge
property double green_edge
property double blue_edge
end_header
0 0 0 0 0 0 
0 10 0 0 0 0 
10 10 0 0 0 0 
10 0 0 0 0 0 
10 20 10 0 0 0 
4 0 1 2 3 0 
3 2 4 3 0 
0 1 0 0 0 
1 2 0 0 0 
2 3 0 0 0 
3 0 0 0 0 
2 4 0 0 0 
4 3 0 0 0 
